<svg id="Layer_1" enable-background="new 0 0 496 496" height="512" viewBox="0 0 496 496" width="512" xmlns="http://www.w3.org/2000/svg"><path d="m467.051 56h-61.461c-5.314-32.057-33.472-56.499-67.117-55.992-36.757.553-65.973 31.183-65.973 67.945v249.434c0 4.105-1.562 8.069-4.412 11.023-18 18.657-27.949 43.541-27.578 70.021.763 54.399 45.99 98.317 100.389 97.56 86.714-1.207 129.494-105.846 70.059-167.534-2.864-2.972-4.458-6.942-4.458-11.069v-29.388h20.551c8.618 0 16.03-6.626 16.431-15.234.428-9.189-6.888-16.766-15.982-16.766h-21v-68h40.551c8.618 0 16.03-6.626 16.431-15.234.428-9.189-6.888-16.766-15.982-16.766h-41v-68h61c9.094 0 16.41-7.577 15.982-16.766-.401-8.608-7.813-15.234-16.431-15.234zm-130.221 377.906c-33.614-2.372-46.969-45.612-19.684-66.371 3.99-3.036 6.354-7.741 6.354-12.754v-191.332c0-8.618 6.626-16.031 15.235-16.431 9.188-.428 16.765 6.889 16.765 15.982v191.578c0 5.026 2.246 9.853 6.256 12.883 29.353 22.179 11.698 69.029-24.926 66.445zm-280.33-345.906c-24.262 0-44-19.738-44-44s19.738-44 44-44 44 19.738 44 44-19.738 44-44 44zm0-56c-6.617 0-12 5.383-12 12s5.383 12 12 12 12-5.383 12-12-5.383-12-12-12zm111.5 190c-37.771 0-68.5-30.729-68.5-68.5v-47c0-37.771 30.728-68.5 68.5-68.5 20.517 0 39.78 9.083 52.852 24.921 5.625 6.815 4.66 16.899-2.155 22.524-6.814 5.625-16.899 4.66-22.524-2.155-21.702-26.295-64.673-10.948-64.673 23.21v47c0 34.184 42.995 49.486 64.673 23.208 5.625-6.816 15.709-7.783 22.524-2.159 6.816 5.624 7.783 15.708 2.159 22.524-13.069 15.841-32.335 24.927-52.856 24.927z"/></svg>